<svg aria-hidden="true" style="position: absolute; width: 0; height: 0; overflow: hidden;" version="1.1" xmlns="http://www.w3.org/2000/svg" xmlns:xlink="http://www.w3.org/1999/xlink">
<defs>
<symbol id="icon-burger" viewBox="0 0 32 32">
<path d="M28 10h-24c-0.552 0-1-0.448-1-1s0.448-1 1-1v0h24c0.552 0 1 0.448 1 1s-0.448 1-1 1v0z"></path>
<path d="M28 17h-24c-0.552 0-1-0.448-1-1s0.448-1 1-1v0h24c0.552 0 1 0.448 1 1s-0.448 1-1 1v0z"></path>
<path d="M28 24h-24c-0.552 0-1-0.448-1-1s0.448-1 1-1v0h24c0.552 0 1 0.448 1 1s-0.448 1-1 1v0z"></path>
</symbol>
<symbol id="icon-logo" viewBox="0 0 87 32">
<path d="M0 0h87.172v31.314h-87.172v-31.314z"></path>
</symbol>
<symbol id="icon-facebook" viewBox="0 0 34 32">
<path fill="#fff" style="fill: var(--color1, #fff)" d="M4.763 31.578h10.605v-11.225h-3.81v-3.701h3.81v-4.626c0-2.551 2.137-4.626 4.763-4.626h4.763v3.701h-3.81c-1.051 0-1.905 0.83-1.905 1.85v3.701h5.543l-0.635 3.701h-4.908v11.225h8.573c2.626 0 4.763-2.075 4.763-4.626v-22.327c0-2.551-2.136-4.626-4.763-4.626h-22.988c-2.626 0-4.763 2.075-4.763 4.626v22.327c0 2.551 2.136 4.626 4.763 4.626zM1.905 4.626c0-1.53 1.282-2.775 2.858-2.775h22.988c1.576 0 2.858 1.245 2.858 2.775v22.327c0 1.53-1.282 2.776-2.858 2.776h-6.668v-7.525h4.617l1.27-7.401h-5.887v-1.85h5.715v-7.401h-6.668c-3.677 0-6.668 2.905-6.668 6.476v2.775h-3.81v7.401h3.81v7.525h-8.7c-1.576 0-2.858-1.245-2.858-2.776v-22.327z"></path>
</symbol>
<symbol id="icon-instagram" viewBox="0 0 34 32">
<path fill="#fff" style="fill: var(--color1, #fff)" d="M4.763 31.578h22.988c2.626 0 4.763-2.075 4.763-4.626v-22.327c0-2.551-2.136-4.626-4.763-4.626h-22.988c-2.626 0-4.763 2.075-4.763 4.626v22.327c0 2.551 2.136 4.626 4.763 4.626zM1.905 4.626c0-1.53 1.282-2.775 2.858-2.775h22.988c1.576 0 2.858 1.245 2.858 2.775v22.327c0 1.53-1.282 2.776-2.858 2.776h-22.988c-1.576 0-2.858-1.245-2.858-2.776v-22.327z"></path>
<path fill="#fff" style="fill: var(--color1, #fff)" d="M16.257 24.115c4.727 0 8.573-3.735 8.573-8.326s-3.846-8.326-8.573-8.326c-4.727 0-8.573 3.735-8.573 8.326s3.846 8.326 8.573 8.326zM16.257 9.313c3.677 0 6.668 2.905 6.668 6.476s-2.991 6.476-6.668 6.476-6.668-2.905-6.668-6.476c0-3.571 2.991-6.476 6.668-6.476z"></path>
<path fill="#fff" style="fill: var(--color1, #fff)" d="M25.241 8.864c1.557 0 2.824-1.23 2.824-2.742s-1.267-2.742-2.824-2.742c-1.557 0-2.824 1.23-2.824 2.742s1.267 2.742 2.824 2.742zM25.241 5.208c0.519 0 0.941 0.41 0.941 0.914s-0.422 0.914-0.941 0.914c-0.519 0-0.941-0.41-0.941-0.914s0.422-0.914 0.941-0.914z"></path>
</symbol>
<symbol id="icon-menu-button-close" viewBox="0 0 32 32">
<path fill="#fff" style="fill: var(--color1, #fff)" d="M2.667 1.333l28.284 28.284-1.886 1.886-28.284-28.284 1.886-1.886z"></path>
<path fill="#fff" style="fill: var(--color1, #fff)" d="M1.333 29.333l28.284-28.284 1.886 1.886-28.284 28.284-1.886-1.886z"></path>
</symbol>
<symbol id="icon-play" viewBox="0 0 29 32">
<path fill="#fff" style="fill: var(--color1, #fff)" d="M27.345 14.651l-25.032-14.444c-1.028-0.591-2.313 0.154-2.313 1.336v28.913c0 1.182 1.285 1.928 2.313 1.336l25.032-14.444c1.028-0.617 1.028-2.107 0-2.698z"></path>
</symbol>
<symbol id="icon-star" viewBox="0 0 32 32">
<path d="M31.306 13.895c0.63-0.614 0.852-1.515 0.581-2.352s-0.982-1.435-1.853-1.562l-7.748-1.126c-0.33-0.048-0.615-0.255-0.763-0.554l-3.464-7.021c-0.389-0.789-1.178-1.279-2.058-1.279s-1.669 0.49-2.058 1.279l-3.465 7.021c-0.147 0.299-0.433 0.506-0.763 0.554l-7.748 1.126c-0.871 0.126-1.58 0.724-1.852 1.562s-0.049 1.738 0.581 2.352l5.606 5.465c0.239 0.233 0.349 0.569 0.292 0.897l-1.323 7.717c-0.149 0.867 0.201 1.726 0.912 2.244s1.637 0.586 2.417 0.175l6.929-3.643c0.295-0.155 0.648-0.155 0.943 0l6.93 3.643c0.338 0.178 0.705 0.266 1.069 0.266 0.474 0 0.945-0.148 1.348-0.441 0.712-0.518 1.061-1.377 0.912-2.244l-1.324-7.716c-0.056-0.329 0.053-0.664 0.292-0.897l5.606-5.465zM24.145 20.473l1.323 7.716c0.067 0.388-0.084 0.759-0.403 0.991s-0.718 0.259-1.067 0.078l-6.93-3.644c-0.334-0.175-0.702-0.263-1.068-0.263s-0.734 0.088-1.068 0.264l-6.929 3.643c-0.351 0.182-0.748 0.154-1.068-0.078s-0.469-0.602-0.403-0.991l1.323-7.716c0.128-0.745-0.119-1.505-0.66-2.031l-5.607-5.465c-0.283-0.276-0.379-0.664-0.256-1.039s0.427-0.633 0.818-0.69l7.748-1.126c0.748-0.108 1.394-0.577 1.728-1.255l3.465-7.021c0.174-0.354 0.515-0.565 0.909-0.565s0.734 0.211 0.909 0.565l3.465 7.021c0.334 0.678 0.98 1.147 1.728 1.255l7.748 1.126c0.39 0.057 0.696 0.315 0.818 0.69s0.026 0.763-0.256 1.039l-5.606 5.465c-0.541 0.527-0.788 1.287-0.659 2.032z"></path>
</symbol>
<symbol id="icon-star-active" viewBox="0 0 32 32">
<path d="M31.306 13.894c0.63-0.614 0.852-1.515 0.581-2.352s-0.982-1.435-1.853-1.562l-7.748-1.126c-0.33-0.048-0.615-0.255-0.762-0.554l-3.464-7.020c-0.389-0.789-1.178-1.279-2.058-1.279s-1.669 0.49-2.058 1.279l-3.465 7.021c-0.147 0.299-0.433 0.506-0.763 0.554l-7.748 1.126c-0.871 0.126-1.581 0.725-1.853 1.562s-0.049 1.738 0.581 2.352l5.606 5.464c0.239 0.233 0.349 0.569 0.292 0.897l-1.323 7.716c-0.117 0.679 0.061 1.34 0.5 1.861 0.683 0.812 1.876 1.059 2.829 0.558l6.929-3.643c0.29-0.152 0.654-0.15 0.943 0l6.93 3.643c0.337 0.178 0.697 0.267 1.067 0.267 0.677 0 1.319-0.301 1.761-0.825 0.44-0.521 0.618-1.183 0.5-1.861l-1.323-7.716c-0.056-0.329 0.053-0.664 0.292-0.897l5.606-5.465z"></path>
</symbol>
<symbol id="icon-twitter" viewBox="0 0 41 32">
<path fill="#fff" style="fill: var(--color1, #fff)" d="M39.48 4.191c-2.483 0.111-2.429 0.102-2.71 0.125l1.471-4.080c0 0-4.591 1.64-5.755 1.934-3.057-2.668-7.6-2.786-10.849-0.847-2.66 1.588-4.088 4.316-3.612 7.504-5.177-0.698-9.539-3.081-12.983-7.099l-1.089-1.271-0.814 1.452c-1.029 1.834-1.37 3.932-0.962 5.905 0.167 0.81 0.452 1.582 0.846 2.305l-0.934-0.352-0.111 1.516c-0.112 1.54 0.416 3.338 1.413 4.809 0.281 0.414 0.642 0.869 1.1 1.318l-0.483-0.072 0.589 1.737c0.774 2.283 2.383 4.049 4.47 5.031-2.085 0.859-3.769 1.408-6.537 2.292l-2.533 0.809 2.339 1.242c0.892 0.474 4.043 2.056 7.157 2.53 6.922 1.054 14.715 0.196 19.962-4.394 4.419-3.865 5.869-9.364 5.568-15.086-0.045-0.866 0.199-1.693 0.688-2.328 0.98-1.271 3.76-4.973 3.766-4.982zM33.864 7.827c-0.813 1.053-1.219 2.399-1.147 3.788 0.304 5.772-1.313 10.248-4.806 13.303-4.080 3.569-10.662 4.971-18.057 3.844-1.339-0.204-2.723-0.661-3.869-1.117 2.321-0.776 4.113-1.467 7.007-2.797l4.040-1.857-4.461-0.277c-2.137-0.133-3.916-1.139-5.010-2.772 0.581-0.033 1.141-0.124 1.698-0.275l4.255-1.151-4.29-1.020c-2.085-0.496-3.273-1.707-3.903-2.636-0.414-0.611-0.684-1.236-0.846-1.813 0.43 0.112 0.932 0.192 1.74 0.27l3.971 0.382-3.146-2.384c-2.267-1.717-3.175-4.297-2.509-6.777 7.075 7.127 15.382 6.591 16.218 6.78-0.184-1.736-0.189-1.74-0.237-1.906-1.071-3.676 1.276-5.543 2.334-6.175 2.211-1.32 5.72-1.519 8.151 0.656 0.525 0.469 1.235 0.654 1.899 0.494 0.596-0.144 1.086-0.296 1.565-0.462l-0.998 2.767 1.274 0.001c-0.24 0.313-0.529 0.688-0.875 1.137z"></path>
</symbol>
<symbol id="icon-arrow" viewBox="0 0 45 32">
<path d="M29.503 0.463c-0.597-0.618-1.59-0.618-2.208 0-0.597 0.597-0.597 1.59 0 2.186l11.196 11.196h-36.945c-0.861 0.001-1.546 0.686-1.546 1.547s0.685 1.568 1.546 1.568h36.945l-11.196 11.175c-0.597 0.618-0.597 1.613 0 2.208 0.618 0.618 1.613 0.618 2.208 0l13.846-13.846c0.618-0.597 0.618-1.59 0-2.186l-13.846-13.848z"></path>
</symbol>
</defs>
</svg>
